<?xml version="1.0" standalone="no"?><!DOCTYPE svg PUBLIC "-//W3C//DTD SVG 1.1//EN" "http://www.w3.org/Graphics/SVG/1.1/DTD/svg11.dtd"><svg t="1657799363710" class="icon" viewBox="0 0 1024 1024" version="1.1" xmlns="http://www.w3.org/2000/svg" p-id="2106" xmlns:xlink="http://www.w3.org/1999/xlink" width="200" height="200"><defs><style type="text/css">@font-face { font-family: feedback-iconfont; src: url("//at.alicdn.com/t/font_1031158_u69w8yhxdu.woff2?t=1630033759944") format("woff2"), url("//at.alicdn.com/t/font_1031158_u69w8yhxdu.woff?t=1630033759944") format("woff"), url("//at.alicdn.com/t/font_1031158_u69w8yhxdu.ttf?t=1630033759944") format("truetype"); }
</style></defs><path d="M910.3 515.6h-86.7c-16.6 0-30-13.4-30-30s13.4-30 30-30h56L568.2 163.8c-30.9-28.9-79.4-28.9-110.4 0L146.4 455.6h56c16.6 0 30 13.4 30 30s-13.4 30-30 30h-86.7c-19.6 0-36.9-11.8-44.2-30.1-7.3-18.4-2.9-39 11.4-52.6l0.2-0.2L416.8 120c54-50.5 138.5-50.5 192.4 0L943 432.8l0.2 0.2c14.3 13.6 18.7 34.2 11.4 52.6-7.4 18.2-24.8 30-44.3 30z" fill="#ffc107" p-id="2107"></path><path d="M713 925.9H313c-77.5 0-140.5-63-140.5-140.5V495.3c0-16.6 13.4-30 30-30s30 13.4 30 30v290.1c0 44.4 36.1 80.5 80.5 80.5h400c44.4 0 80.5-36.1 80.5-80.5V495.3c0-16.6 13.4-30 30-30s30 13.4 30 30v290.1c0 77.5-63 140.5-140.5 140.5z" fill="#ffc107" p-id="2108"></path><path d="M623.5 925.6c-16.6 0-30-13.4-30-30V734.3c0-21.6-8.4-41.6-23.5-56.4l-0.6-0.6c-14.8-15.2-34.8-23.5-56.4-23.5-44.4 0-80.5 36.1-80.5 80.5v161.3c0 16.6-13.4 30-30 30s-30-13.4-30-30V734.3c0-77.5 63-140.5 140.5-140.5 37.8 0 73 14.7 99.1 41.4 26.7 26.1 41.4 61.3 41.4 99.1v161.3c0 16.6-13.4 30-30 30z" fill="#ffc107" p-id="2109"></path></svg>