<?xml version="1.0" standalone="no"?><!DOCTYPE svg PUBLIC "-//W3C//DTD SVG 1.1//EN" "http://www.w3.org/Graphics/SVG/1.1/DTD/svg11.dtd"><svg t="1657799330318" class="icon" viewBox="0 0 1024 1024" version="1.1" xmlns="http://www.w3.org/2000/svg" p-id="1650" xmlns:xlink="http://www.w3.org/1999/xlink" width="200" height="200"><defs><style type="text/css">@font-face { font-family: feedback-iconfont; src: url("//at.alicdn.com/t/font_1031158_u69w8yhxdu.woff2?t=1630033759944") format("woff2"), url("//at.alicdn.com/t/font_1031158_u69w8yhxdu.woff?t=1630033759944") format("woff"), url("//at.alicdn.com/t/font_1031158_u69w8yhxdu.ttf?t=1630033759944") format("truetype"); }
</style></defs><path d="M511.3 158.2c38.6 0 74.8 15 102.1 42.3s42.3 63.5 42.3 102.1-15 74.8-42.3 102.1C586.1 432 549.9 447 511.3 447s-74.8-15-102.1-42.3C382 377.3 367 341 367 302.5s15-74.8 42.3-102.1c27.2-27.2 63.5-42.2 102-42.2m0-60C398.5 98.2 307 189.6 307 302.5c0 112.8 91.5 204.3 204.3 204.3 112.8 0 204.3-91.5 204.3-204.3 0.1-112.9-91.4-204.3-204.3-204.3zM511.3 605.1c54.3 0 102.4 6.1 143.1 18.1 34.8 10.3 65.1 25.3 89.9 44.5 21.9 17 39.9 37.2 55.1 61.8 13.5 22 24.4 47 33.2 76.3 5.6 18.5-2.2 32.8-7.4 39.7-10.7 14.4-27.9 22.6-47.3 22.6H244.8c-19.3 0-36.6-8.2-47.3-22.6-5.1-6.9-12.9-21.2-7.4-39.7 8.8-29.3 19.6-54.3 33.2-76.3 15.1-24.6 33.1-44.9 55.1-61.8 24.8-19.2 55.1-34.2 89.9-44.5 40.6-12 88.8-18.1 143-18.1m0-60c-251.6 0-341.4 119.3-378.6 243.5-21 70 34.8 139.6 112.1 139.6h533.1c77.3 0 133.1-69.6 112.1-139.6-37.3-124.2-127.1-243.5-378.7-243.5z" fill="#2c2c2c" p-id="1651"></path></svg>