<?xml version="1.0" standalone="no"?><!DOCTYPE svg PUBLIC "-//W3C//DTD SVG 1.1//EN" "http://www.w3.org/Graphics/SVG/1.1/DTD/svg11.dtd"><svg t="1657799294186" class="icon" viewBox="0 0 1024 1024" version="1.1" xmlns="http://www.w3.org/2000/svg" p-id="1278" xmlns:xlink="http://www.w3.org/1999/xlink" width="200" height="200"><defs><style type="text/css">@font-face { font-family: feedback-iconfont; src: url("//at.alicdn.com/t/font_1031158_u69w8yhxdu.woff2?t=1630033759944") format("woff2"), url("//at.alicdn.com/t/font_1031158_u69w8yhxdu.woff?t=1630033759944") format("woff"), url("//at.alicdn.com/t/font_1031158_u69w8yhxdu.ttf?t=1630033759944") format("truetype"); }
</style></defs><path d="M457.6 158.2c40.5 0 79.7 7.9 116.6 23.5 35.7 15.1 67.7 36.7 95.3 64.3 27.5 27.5 49.2 59.6 64.3 95.3 15.6 36.9 23.5 76.2 23.5 116.6s-7.9 79.7-23.5 116.6c-15.1 35.7-36.7 67.7-64.3 95.3-27.5 27.5-59.6 49.2-95.3 64.3-36.9 15.6-76.2 23.5-116.6 23.5s-79.7-7.9-116.6-23.5c-35.7-15.1-67.7-36.7-95.3-64.3-27.5-27.5-49.2-59.6-64.3-95.3-15.6-36.9-23.5-76.2-23.5-116.6s7.9-79.7 23.5-116.6c15.1-35.7 36.7-67.7 64.3-95.3s59.6-49.2 95.3-64.3c36.9-15.6 76.1-23.5 116.6-23.5m0-60c-198.7 0-359.7 161-359.7 359.7s161 359.7 359.7 359.7 359.7-161 359.7-359.7c0-198.6-161-359.7-359.7-359.7zM928 958.3c-7.7 0-15.4-2.9-21.2-8.8L768.4 811.2c-11.7-11.7-11.7-30.7 0-42.4s30.7-11.7 42.4 0l138.3 138.3c11.7 11.7 11.7 30.7 0 42.4-5.7 5.9-13.4 8.8-21.1 8.8z" fill="#2c2c2c" p-id="1279"></path></svg>